<svg width="15" height="19" viewBox="0 0 15 19" fill="none" xmlns="http://www.w3.org/2000/svg">
<path d="M11.5 4.5C11.5 5.56087 11.0786 6.57828 10.3284 7.32843C9.57828 8.07857 8.56087 8.5 7.5 8.5C6.43913 8.5 5.42172 8.07857 4.67157 7.32843C3.92143 6.57828 3.5 5.56087 3.5 4.5C3.5 3.43913 3.92143 2.42172 4.67157 1.67157C5.42172 0.921427 6.43913 0.5 7.5 0.5C8.56087 0.5 9.57828 0.921427 10.3284 1.67157C11.0786 2.42172 11.5 3.43913 11.5 4.5ZM7.5 11.5C5.64348 11.5 3.86301 12.2375 2.55025 13.5503C1.2375 14.863 0.5 16.6435 0.5 18.5H14.5C14.5 16.6435 13.7625 14.863 12.4497 13.5503C11.137 12.2375 9.35652 11.5 7.5 11.5Z" stroke="white" stroke-linecap="round" stroke-linejoin="round"/>
</svg>
