<svg width="23" height="20" viewBox="0 0 23 20" fill="none" xmlns="http://www.w3.org/2000/svg">
<path d="M2.53771 2.54417C2.05019 3.03373 1.66348 3.61492 1.39964 4.25456C1.1358 4.89419 1 5.57976 1 6.2721C1 6.96444 1.1358 7.65 1.39964 8.28964C1.66348 8.92928 2.05019 9.51047 2.53771 10L11.5 19L20.4623 10C21.4469 9.01132 22 7.67034 22 6.2721C22 4.87385 21.4469 3.53288 20.4623 2.54417C19.4777 1.55546 18.1424 1.00001 16.75 1.00001C15.3576 1.00001 14.0222 1.55546 13.0377 2.54417L11.5 4.0883L9.96235 2.54417C9.47484 2.05461 8.89608 1.66627 8.25912 1.40132C7.62216 1.13637 6.93947 1 6.25003 1C5.56058 1 4.87789 1.13637 4.24093 1.40132C3.60397 1.66627 3.02521 2.05461 2.53771 2.54417Z" stroke="white" stroke-width="2" stroke-linecap="round" stroke-linejoin="round"/>
</svg>
