<svg width="28" height="28" viewBox="0 0 28 28" fill="none" xmlns="http://www.w3.org/2000/svg">
<path d="M15 18L19 14M19 14L15 10M19 14H9M26 14C26 15.5759 25.6896 17.1363 25.0866 18.5922C24.4835 20.0481 23.5996 21.371 22.4853 22.4853C21.371 23.5996 20.0481 24.4835 18.5922 25.0866C17.1363 25.6896 15.5759 26 14 26C12.4241 26 10.8637 25.6896 9.4078 25.0866C7.95189 24.4835 6.62902 23.5996 5.51472 22.4853C4.40042 21.371 3.5165 20.0481 2.91345 18.5922C2.31039 17.1363 2 15.5759 2 14C2 10.8174 3.26428 7.76516 5.51472 5.51472C7.76516 3.26428 10.8174 2 14 2C17.1826 2 20.2348 3.26428 22.4853 5.51472C24.7357 7.76516 26 10.8174 26 14Z" stroke="white" stroke-width="3" stroke-linecap="round" stroke-linejoin="round"/>
</svg>
