<svg width="26" height="26" viewBox="0 0 26 26" fill="none" xmlns="http://www.w3.org/2000/svg">
<path d="M1 24.9673L3.19906 19.9028C1.51666 17.5145 0.763657 14.5944 1.08136 11.6904C1.39906 8.78641 2.76563 6.09817 4.9246 4.13019C7.08358 2.1622 9.88654 1.04976 12.8075 1.00163C15.7284 0.953498 18.5665 1.97299 20.7891 3.86877C23.0118 5.76455 24.4662 8.4063 24.8794 11.2983C25.2926 14.1902 24.6362 17.1336 23.0334 19.5759C21.4306 22.0183 18.9916 23.7918 16.174 24.5636C13.3565 25.3354 10.3542 25.0524 7.73046 23.7678L1 24.9673Z" stroke="white" stroke-width="2" stroke-linecap="round" stroke-linejoin="round"/>
<path d="M8.99658 10.3068C8.99658 10.4835 9.06679 10.653 9.19176 10.778C9.31673 10.9029 9.48623 10.9731 9.66296 10.9731C9.8397 10.9731 10.0092 10.9029 10.1342 10.778C10.2591 10.653 10.3293 10.4835 10.3293 10.3068V8.974C10.3293 8.79726 10.2591 8.62777 10.1342 8.5028C10.0092 8.37782 9.8397 8.30762 9.66296 8.30762C9.48623 8.30762 9.31673 8.37782 9.19176 8.5028C9.06679 8.62777 8.99658 8.79726 8.99658 8.974V10.3068ZM8.99658 10.3068C8.99658 12.0741 9.69866 13.7691 10.9484 15.0188C12.1981 16.2685 13.893 16.9706 15.6604 16.9706M15.6604 16.9706H16.9932C17.1699 16.9706 17.3394 16.9004 17.4644 16.7754C17.5893 16.6504 17.6595 16.4809 17.6595 16.3042C17.6595 16.1275 17.5893 15.958 17.4644 15.833C17.3394 15.708 17.1699 15.6378 16.9932 15.6378H15.6604C15.4837 15.6378 15.3142 15.708 15.1892 15.833C15.0642 15.958 14.994 16.1275 14.994 16.3042C14.994 16.4809 15.0642 16.6504 15.1892 16.7754C15.3142 16.9004 15.4837 16.9706 15.6604 16.9706Z" stroke="white" stroke-width="2" stroke-linecap="round" stroke-linejoin="round"/>
</svg>
