<svg width="20" height="20" viewBox="0 0 20 20" fill="none" xmlns="http://www.w3.org/2000/svg">
<path d="M9.75 5.75V18.75M9.75 5.75V3.75C9.75 3.35444 9.8673 2.96776 10.0871 2.63886C10.3068 2.30996 10.6192 2.05362 10.9846 1.90224C11.3501 1.75087 11.7522 1.71126 12.1402 1.78843C12.5281 1.8656 12.8845 2.05608 13.1642 2.33579C13.4439 2.61549 13.6344 2.97186 13.7116 3.35982C13.7887 3.74778 13.7491 4.14992 13.5978 4.51537C13.4464 4.88082 13.19 5.19318 12.8611 5.41294C12.5322 5.6327 12.1456 5.75 11.75 5.75H9.75ZM9.75 5.75V3.25C9.75 2.75555 9.60338 2.2722 9.32867 1.86108C9.05397 1.44995 8.66352 1.12952 8.20671 0.940302C7.74989 0.751083 7.24723 0.701575 6.76227 0.798038C6.27732 0.894501 5.83186 1.1326 5.48223 1.48223C5.1326 1.83187 4.8945 2.27732 4.79804 2.76228C4.70157 3.24723 4.75108 3.74989 4.9403 4.20671C5.12952 4.66352 5.44995 5.05397 5.86107 5.32867C6.2722 5.60338 6.75555 5.75 7.25 5.75H9.75ZM2.75 9.75H16.75M2.75 9.75C2.21957 9.75 1.71086 9.53929 1.33579 9.16421C0.960714 8.78914 0.75 8.28043 0.75 7.75C0.75 7.21957 0.960714 6.71086 1.33579 6.33579C1.71086 5.96071 2.21957 5.75 2.75 5.75H16.75C17.2804 5.75 17.7891 5.96071 18.1642 6.33579C18.5393 6.71086 18.75 7.21957 18.75 7.75C18.75 8.28043 18.5393 8.78914 18.1642 9.16421C17.7891 9.53929 17.2804 9.75 16.75 9.75M2.75 9.75V16.75C2.75 17.2804 2.96071 17.7891 3.33579 18.1642C3.71086 18.5393 4.21957 18.75 4.75 18.75H14.75C15.2804 18.75 15.7891 18.5393 16.1642 18.1642C16.5393 17.7891 16.75 17.2804 16.75 16.75V9.75" stroke="white" stroke-width="1.5" stroke-linecap="round" stroke-linejoin="round"/>
</svg>
